<?xml version="1.0" standalone="no"?>
<!DOCTYPE svg PUBLIC "-//W3C//DTD SVG 20010904//EN"
 "http://www.w3.org/TR/2001/REC-SVG-20010904/DTD/svg10.dtd">
<svg version="1.0" xmlns="http://www.w3.org/2000/svg"
 width="981.000000pt" height="929.000000pt" viewBox="0 0 981.000000 929.000000"
 preserveAspectRatio="xMidYMid meet">

<g transform="translate(0.000000,929.000000) scale(0.100000,-0.100000)"
fill="#000000" stroke="none">
<path d="M2546 9272 c-24 -40 -86 -366 -94 -499 l-7 -111 -101 86 c-228 196
-448 322 -560 322 l-32 0 -8 -107 c-11 -133 -12 -394 -2 -449 l8 -40 -106 -84
c-191 -152 -305 -294 -327 -408 l-11 -59 -50 -17 c-28 -10 -125 -46 -216 -81
-660 -253 -1030 -463 -1030 -585 0 -50 192 -263 258 -285 9 -3 35 -33 57 -66
49 -73 178 -200 264 -258 35 -24 109 -65 165 -92 182 -86 321 -114 651 -129
295 -13 385 -37 393 -104 2 -15 -13 -63 -36 -114 -22 -48 -43 -96 -46 -107
-12 -35 -7 -265 11 -482 l17 -212 -32 -168 c-56 -296 -66 -395 -66 -663 0
-313 18 -441 109 -780 80 -295 72 -871 -20 -1480 -89 -587 -230 -1136 -364
-1415 -58 -121 -85 -155 -167 -206 -92 -58 -205 -183 -253 -279 -46 -92 -58
-153 -41 -204 22 -68 -4 -66 722 -66 l653 0 37 53 c53 76 144 173 195 208 25
17 75 41 111 53 83 26 120 71 157 187 41 131 56 240 65 494 5 132 14 301 20
375 5 74 13 263 16 420 7 320 -2 464 -42 654 -32 152 -36 298 -11 373 17 49
38 78 85 115 25 20 20 48 -24 129 -94 173 -278 217 -454 108 -114 -70 -215
-15 -359 197 -22 34 -41 71 -41 83 0 40 31 96 76 137 53 49 55 67 18 191 -18
63 -24 102 -20 135 10 90 82 196 202 299 l61 52 6 86 c11 145 80 323 162 418
l36 43 32 -16 c18 -9 42 -25 54 -36 l21 -20 37 70 c64 123 141 192 213 192 38
0 102 -47 140 -102 65 -95 138 -273 162 -395 l12 -59 66 -29 c195 -83 343
-185 512 -355 162 -161 244 -274 340 -465 106 -214 178 -446 211 -686 l12 -86
76 -18 c387 -91 731 -272 867 -458 26 -34 48 -62 51 -62 3 0 25 70 48 155 59
212 118 384 177 515 75 165 96 231 109 338 26 210 -33 390 -157 480 -82 60
-132 72 -284 71 -112 -1 -145 -4 -194 -22 -77 -29 -124 -65 -147 -116 -35 -77
-23 -155 48 -309 41 -89 46 -108 45 -169 -1 -165 -118 -275 -265 -247 -203 38
-297 197 -284 479 21 438 307 789 706 864 106 20 280 20 379 0 175 -35 346
-152 450 -308 155 -231 208 -571 142 -897 -27 -134 -85 -309 -210 -639 -134
-354 -154 -428 -154 -575 0 -102 3 -119 42 -234 76 -226 109 -393 119 -591 22
-477 -176 -838 -568 -1035 l-91 -45 189 0 189 0 159 106 c301 200 517 376 545
444 10 24 17 29 34 24 26 -8 133 -65 351 -189 483 -275 894 -432 1285 -491
165 -26 437 -24 590 4 270 49 518 164 735 342 107 88 256 248 298 320 170 294
179 692 26 1137 -50 143 -76 196 -92 186 -7 -4 -63 -45 -125 -91 -317 -236
-645 -403 -975 -498 -499 -144 -1052 -138 -1588 17 l-107 31 28 62 c98 215
152 612 130 948 -63 968 -567 1796 -1460 2397 -336 227 -694 409 -1125 572
l-180 68 -2 63 c-8 201 -46 449 -104 664 -126 475 -365 998 -594 1302 l-73 98
-86 419 c-84 408 -88 423 -137 525 -141 293 -382 570 -574 661 -62 30 -81 34
-89 21z"/>
<path d="M3528 1353 c-35 -4 -38 -7 -38 -36 0 -118 -134 -484 -293 -802 -53
-107 -171 -326 -195 -363 l-14 -22 153 0 154 0 16 84 c30 155 90 245 198 294
70 32 196 40 349 22 91 -11 106 -10 119 3 17 17 21 8 -71 156 -19 29 -47 90
-62 135 -27 78 -28 87 -26 266 1 206 -2 220 -64 246 -37 15 -163 25 -226 17z"/>
</g>
</svg>
